<svg xmlns="http://www.w3.org/2000/svg" width="1200" height="630" viewBox="0 0 1200 630">
  <defs>
    <linearGradient id="bg3" x1="0%" y1="0%" x2="100%" y2="100%">
      <stop offset="0%" style="stop-color:#8B5CF6"/>
      <stop offset="100%" style="stop-color:#4C1D95"/>
    </linearGradient>
  </defs>
  <rect width="1200" height="630" fill="url(#bg3)"/>
  <circle cx="1000" cy="180" r="240" fill="rgba(255,255,255,0.05)"/>
  <circle cx="150" cy="500" r="170" fill="rgba(255,255,255,0.05)"/>
  <!-- Chart line -->
  <g transform="translate(750, 150)">
    <polyline points="0,280 50,260 100,240 150,200 200,220 250,160 300,120 350,80 400,40" fill="none" stroke="rgba(253,224,71,0.6)" stroke-width="3" stroke-linecap="round" stroke-linejoin="round"/>
    <polyline points="0,280 50,260 100,240 150,200 200,220 250,160 300,120 350,80 400,40" fill="none" stroke="#FCD34D" stroke-width="3" stroke-linecap="round" stroke-linejoin="round" stroke-dasharray="0" opacity="0.8"/>
    <circle cx="400" cy="40" r="8" fill="#FCD34D"/>
    <circle cx="300" cy="120" r="5" fill="rgba(255,255,255,0.4)"/>
    <circle cx="200" cy="220" r="5" fill="rgba(255,255,255,0.4)"/>
    <circle cx="100" cy="240" r="5" fill="rgba(255,255,255,0.4)"/>
    <!-- Grid lines -->
    <line x1="0" y1="70" x2="400" y2="70" stroke="rgba(255,255,255,0.08)" stroke-width="1"/>
    <line x1="0" y1="140" x2="400" y2="140" stroke="rgba(255,255,255,0.08)" stroke-width="1"/>
    <line x1="0" y1="210" x2="400" y2="210" stroke="rgba(255,255,255,0.08)" stroke-width="1"/>
    <line x1="0" y1="280" x2="400" y2="280" stroke="rgba(255,255,255,0.08)" stroke-width="1"/>
    <text x="410" y="48" font-family="Arial" font-size="14" font-weight="bold" fill="#FCD34D">▲</text>
  </g>
  <rect x="60" y="50" width="100" height="36" rx="18" fill="rgba(255,255,255,0.2)"/>
  <text x="110" y="74" font-family="Arial" font-size="14" font-weight="bold" fill="white" text-anchor="middle">📈 투자·주식</text>
  <text x="80" y="250" font-family="Arial,sans-serif" font-size="56" font-weight="bold" fill="white">ETF 투자 초보</text>
  <text x="80" y="330" font-family="Arial,sans-serif" font-size="44" font-weight="bold" fill="#FCD34D">ETF란 무엇이고</text>
  <text x="80" y="390" font-family="Arial,sans-serif" font-size="44" font-weight="bold" fill="#FCD34D">어떻게 시작할까?</text>
  <text x="80" y="450" font-family="Arial,sans-serif" font-size="22" fill="rgba(255,255,255,0.7)">초보 투자자를 위한 ETF 완벽 가이드</text>
  <rect x="80" y="500" width="56" height="56" rx="14" fill="rgba(255,255,255,0.2)"/>
  <text x="108" y="536" font-family="Arial" font-size="28" font-weight="bold" fill="white" text-anchor="middle">Z</text>
  <text x="150" y="535" font-family="Arial" font-size="18" fill="rgba(255,255,255,0.7)">쉬운재테크</text>
</svg>
