<svg xmlns="http://www.w3.org/2000/svg" width="1200" height="630" viewBox="0 0 1200 630">
  <defs>
    <linearGradient id="bg1" x1="0%" y1="0%" x2="100%" y2="100%">
      <stop offset="0%" style="stop-color:#3B82F6"/>
      <stop offset="100%" style="stop-color:#1E3A8A"/>
    </linearGradient>
  </defs>
  <rect width="1200" height="630" fill="url(#bg1)"/>
  <circle cx="1000" cy="150" r="250" fill="rgba(255,255,255,0.05)"/>
  <circle cx="200" cy="500" r="180" fill="rgba(255,255,255,0.05)"/>
  <!-- Step icons -->
  <g transform="translate(800, 200)">
    <circle cx="0" cy="0" r="40" fill="rgba(255,255,255,0.15)"/>
    <text x="0" y="8" font-family="Arial" font-size="28" fill="white" text-anchor="middle">1</text>
    <circle cx="100" cy="60" r="40" fill="rgba(255,255,255,0.15)"/>
    <text x="100" y="68" font-family="Arial" font-size="28" fill="white" text-anchor="middle">2</text>
    <circle cx="50" cy="140" r="40" fill="rgba(255,255,255,0.15)"/>
    <text x="50" y="148" font-family="Arial" font-size="28" fill="white" text-anchor="middle">3</text>
    <circle cx="150" cy="200" r="40" fill="rgba(255,255,255,0.15)"/>
    <text x="150" y="208" font-family="Arial" font-size="28" fill="white" text-anchor="middle">4</text>
    <circle cx="80" cy="280" r="40" fill="rgba(253,224,71,0.3)"/>
    <text x="80" y="288" font-family="Arial" font-size="28" fill="#FCD34D" text-anchor="middle">5</text>
    <line x1="0" y1="40" x2="100" y2="20" stroke="rgba(255,255,255,0.2)" stroke-width="2"/>
    <line x1="100" y1="100" x2="50" y2="100" stroke="rgba(255,255,255,0.2)" stroke-width="2"/>
    <line x1="50" y1="180" x2="150" y2="160" stroke="rgba(255,255,255,0.2)" stroke-width="2"/>
    <line x1="150" y1="240" x2="80" y2="240" stroke="rgba(255,255,255,0.2)" stroke-width="2"/>
  </g>
  <rect x="60" y="50" width="100" height="36" rx="18" fill="rgba(255,255,255,0.2)"/>
  <text x="110" y="74" font-family="Arial" font-size="14" font-weight="bold" fill="white" text-anchor="middle">📚 재테크 기초</text>
  <text x="80" y="250" font-family="Arial,sans-serif" font-size="56" font-weight="bold" fill="white">재테크 시작하기</text>
  <text x="80" y="330" font-family="Arial,sans-serif" font-size="44" font-weight="bold" fill="#FCD34D">완전 초보를 위한</text>
  <text x="80" y="390" font-family="Arial,sans-serif" font-size="44" font-weight="bold" fill="#FCD34D">5단계 가이드</text>
  <text x="80" y="450" font-family="Arial,sans-serif" font-size="22" fill="rgba(255,255,255,0.7)">비상금 만들기부터 첫 투자까지</text>
  <rect x="80" y="500" width="56" height="56" rx="14" fill="rgba(255,255,255,0.2)"/>
  <text x="108" y="536" font-family="Arial" font-size="28" font-weight="bold" fill="white" text-anchor="middle">Z</text>
  <text x="150" y="535" font-family="Arial" font-size="18" fill="rgba(255,255,255,0.7)">쉬운재테크</text>
</svg>
