<svg xmlns="http://www.w3.org/2000/svg" width="1200" height="630" viewBox="0 0 1200 630">
  <defs>
    <linearGradient id="bg4" x1="0%" y1="0%" x2="100%" y2="100%">
      <stop offset="0%" style="stop-color:#F59E0B"/>
      <stop offset="100%" style="stop-color:#92400E"/>
    </linearGradient>
  </defs>
  <rect width="1200" height="630" fill="url(#bg4)"/>
  <circle cx="1050" cy="130" r="230" fill="rgba(255,255,255,0.05)"/>
  <circle cx="120" cy="530" r="150" fill="rgba(255,255,255,0.05)"/>
  <!-- Calculator/document icon -->
  <g transform="translate(830, 160)">
    <rect x="0" y="0" width="260" height="340" rx="20" fill="rgba(255,255,255,0.1)" stroke="rgba(255,255,255,0.2)" stroke-width="2"/>
    <rect x="30" y="30" width="200" height="50" rx="8" fill="rgba(255,255,255,0.1)"/>
    <text x="130" y="62" font-family="Arial" font-size="22" font-weight="bold" fill="rgba(255,255,255,0.8)" text-anchor="middle">₩ 1,485,000</text>
    <rect x="30" y="100" width="90" height="40" rx="8" fill="rgba(255,255,255,0.08)"/>
    <rect x="140" y="100" width="90" height="40" rx="8" fill="rgba(255,255,255,0.08)"/>
    <rect x="30" y="160" width="90" height="40" rx="8" fill="rgba(255,255,255,0.08)"/>
    <rect x="140" y="160" width="90" height="40" rx="8" fill="rgba(255,255,255,0.08)"/>
    <rect x="30" y="220" width="90" height="40" rx="8" fill="rgba(255,255,255,0.08)"/>
    <rect x="140" y="220" width="90" height="40" rx="8" fill="rgba(255,255,255,0.15)"/>
    <text x="185" y="247" font-family="Arial" font-size="16" font-weight="bold" fill="white" text-anchor="middle">환급</text>
    <rect x="30" y="280" width="200" height="40" rx="8" fill="rgba(255,255,255,0.15)"/>
    <text x="130" y="307" font-family="Arial" font-size="14" fill="rgba(255,255,255,0.7)" text-anchor="middle">세액공제 계산하기</text>
  </g>
  <rect x="60" y="50" width="100" height="36" rx="18" fill="rgba(255,255,255,0.2)"/>
  <text x="110" y="74" font-family="Arial" font-size="14" font-weight="bold" fill="white" text-anchor="middle">🧾 절세·세금</text>
  <text x="80" y="250" font-family="Arial,sans-serif" font-size="56" font-weight="bold" fill="white">연말정산 완전 정복</text>
  <text x="80" y="330" font-family="Arial,sans-serif" font-size="44" font-weight="bold" fill="rgba(255,255,255,0.9)">직장인 필수</text>
  <text x="80" y="390" font-family="Arial,sans-serif" font-size="44" font-weight="bold" fill="rgba(255,255,255,0.9)">절세 가이드</text>
  <text x="80" y="450" font-family="Arial,sans-serif" font-size="22" fill="rgba(255,255,255,0.7)">최대 148.5만원 환급받는 방법</text>
  <rect x="80" y="500" width="56" height="56" rx="14" fill="rgba(255,255,255,0.2)"/>
  <text x="108" y="536" font-family="Arial" font-size="28" font-weight="bold" fill="white" text-anchor="middle">Z</text>
  <text x="150" y="535" font-family="Arial" font-size="18" fill="rgba(255,255,255,0.7)">쉬운재테크</text>
</svg>
