<svg xmlns="http://www.w3.org/2000/svg" width="800" height="580" viewBox="0 0 800 580">
  <defs>
    <linearGradient id="ibg" x1="0%" y1="0%" x2="100%" y2="100%">
      <stop offset="0%" style="stop-color:#05201a"/>
      <stop offset="100%" style="stop-color:#0a3d2e"/>
    </linearGradient>
  </defs>
  <rect width="800" height="580" rx="16" fill="url(#ibg)"/>
  <circle cx="720" cy="60" r="150" fill="rgba(16,185,129,0.04)"/>

  <!-- 제목 -->
  <rect x="40" y="30" width="8" height="36" rx="4" fill="#10B981"/>
  <text x="60" y="58" font-family="GmarketSansTTF,Arial,sans-serif" font-size="22" font-weight="bold" fill="white">잠자는 돈에 이자 주는 법? ✨ CMA 통장, 초보도 3분이면 ...</text>
  <text x="40" y="95" font-family="GmarketSansTTF,Arial,sans-serif" font-size="14" fill="rgba(255,255,255,0.4)">단계별 핵심 포인트</text>

  
    <rect x="80" y="140" width="640" height="64" rx="12" fill="rgba(255,255,255,0.06)" stroke="rgba(16,185,129,0.3)" stroke-width="1.5"/>
    <circle cx="115" cy="172" r="18" fill="#10B981"/>
    <text x="115" y="178" font-family="GmarketSansTTF,Arial,sans-serif" font-size="16" font-weight="bold" fill="white" text-anchor="middle">1</text>
    <text x="150" y="179" font-family="GmarketSansTTF,Arial,sans-serif" font-size="18" fill="white">CMA 통장, 도대체 뭔가요? (3분 만에 이...</text>
    <line x1="115" y1="204" x2="115" y2="220" stroke="rgba(16,185,129,0.4)" stroke-width="2" stroke-dasharray="4,3"/>
    <rect x="80" y="220" width="640" height="64" rx="12" fill="rgba(255,255,255,0.06)" stroke="rgba(16,185,129,0.3)" stroke-width="1.5"/>
    <circle cx="115" cy="252" r="18" fill="#10B981"/>
    <text x="115" y="258" font-family="GmarketSansTTF,Arial,sans-serif" font-size="16" font-weight="bold" fill="white" text-anchor="middle">2</text>
    <text x="150" y="259" font-family="GmarketSansTTF,Arial,sans-serif" font-size="18" fill="white">왜 CMA를 써야 할까요? (이유 있는 선택!...</text>
    <line x1="115" y1="284" x2="115" y2="300" stroke="rgba(16,185,129,0.4)" stroke-width="2" stroke-dasharray="4,3"/>
    <rect x="80" y="300" width="640" height="64" rx="12" fill="rgba(255,255,255,0.06)" stroke="rgba(16,185,129,0.3)" stroke-width="1.5"/>
    <circle cx="115" cy="332" r="18" fill="#10B981"/>
    <text x="115" y="338" font-family="GmarketSansTTF,Arial,sans-serif" font-size="16" font-weight="bold" fill="white" text-anchor="middle">3</text>
    <text x="150" y="339" font-family="GmarketSansTTF,Arial,sans-serif" font-size="18" fill="white">CMA 종류, 어떤 걸 골라야 할까요? (초보...</text>
    <line x1="115" y1="364" x2="115" y2="380" stroke="rgba(16,185,129,0.4)" stroke-width="2" stroke-dasharray="4,3"/>
    <rect x="80" y="380" width="640" height="64" rx="12" fill="rgba(255,255,255,0.06)" stroke="rgba(16,185,129,0.3)" stroke-width="1.5"/>
    <circle cx="115" cy="412" r="18" fill="#10B981"/>
    <text x="115" y="418" font-family="GmarketSansTTF,Arial,sans-serif" font-size="16" font-weight="bold" fill="white" text-anchor="middle">4</text>
    <text x="150" y="419" font-family="GmarketSansTTF,Arial,sans-serif" font-size="18" fill="white">나에게 딱 맞는 CMA 통장 고르는 꿀팁!</text>
    <line x1="115" y1="444" x2="115" y2="460" stroke="rgba(16,185,129,0.4)" stroke-width="2" stroke-dasharray="4,3"/>
    <rect x="80" y="460" width="640" height="64" rx="12" fill="rgba(255,255,255,0.06)" stroke="rgba(16,185,129,0.3)" stroke-width="1.5"/>
    <circle cx="115" cy="492" r="18" fill="#10B981"/>
    <text x="115" y="498" font-family="GmarketSansTTF,Arial,sans-serif" font-size="16" font-weight="bold" fill="white" text-anchor="middle">5</text>
    <text x="150" y="499" font-family="GmarketSansTTF,Arial,sans-serif" font-size="18" fill="white">CMA 통장, 이렇게 활용해보세요! (실용적인...</text>
    

  <text x="40" y="565" font-family="GmarketSansTTF,Arial,sans-serif" font-size="11" fill="rgba(255,255,255,0.25)">쉬운재테크 · easyzetec.com</text>
</svg>