<svg xmlns="http://www.w3.org/2000/svg" width="800" height="590" viewBox="0 0 800 590">
  <defs>
    <linearGradient id="ibg" x1="0%" y1="0%" x2="100%" y2="100%">
      <stop offset="0%" style="stop-color:#1a1305"/>
      <stop offset="100%" style="stop-color:#3d2e0a"/>
    </linearGradient>
  </defs>
  <rect width="800" height="590" rx="16" fill="url(#ibg)"/>
  <circle cx="720" cy="60" r="120" fill="rgba(245,158,11,0.03)"/>

  <rect x="40" y="30" width="8" height="36" rx="4" fill="#F59E0B"/>
  <text x="60" y="58" font-family="GmarketSansTTF,Arial,sans-serif" font-size="22" font-weight="bold" fill="white">소득공제? 세액공제? 헷갈리는 연말정산, '13월의 월급' 만드...</text>
  <text x="40" y="95" font-family="GmarketSansTTF,Arial,sans-serif" font-size="14" fill="rgba(255,255,255,0.4)">이 글에서 다루는 핵심 내용</text>

  
    <rect x="40" y="130" width="720" height="72" rx="12" fill="rgba(255,255,255,0.04)" stroke="rgba(245,158,11,0.15)" stroke-width="1"/>
    <rect x="40" y="130" width="6" height="72" rx="3" fill="#FBBF24"/>
    <text x="72" y="172" font-family="GmarketSansTTF,Arial,sans-serif" font-size="18" fill="white">소득공제: &quot;월급 봉투에서 돈을 좀 빼주는 것...</text>
    <text x="730" y="171" font-family="GmarketSansTTF,Arial,sans-serif" font-size="14" fill="#FBBF24" text-anchor="end">01</text>
    <rect x="40" y="214" width="720" height="72" rx="12" fill="rgba(255,255,255,0.04)" stroke="rgba(245,158,11,0.15)" stroke-width="1"/>
    <rect x="40" y="214" width="6" height="72" rx="3" fill="#34D399"/>
    <text x="72" y="256" font-family="GmarketSansTTF,Arial,sans-serif" font-size="18" fill="white">세액공제: &quot;계산된 세금에서 할인 쿠폰을 쓰는...</text>
    <text x="730" y="255" font-family="GmarketSansTTF,Arial,sans-serif" font-size="14" fill="#34D399" text-anchor="end">02</text>
    <rect x="40" y="298" width="720" height="72" rx="12" fill="rgba(255,255,255,0.04)" stroke="rgba(245,158,11,0.15)" stroke-width="1"/>
    <rect x="40" y="298" width="6" height="72" rx="3" fill="#60A5FA"/>
    <text x="72" y="340" font-family="GmarketSansTTF,Arial,sans-serif" font-size="18" fill="white">소득공제 세액공제 차이, 한눈에 비교하기!</text>
    <text x="730" y="339" font-family="GmarketSansTTF,Arial,sans-serif" font-size="14" fill="#60A5FA" text-anchor="end">03</text>
    <rect x="40" y="382" width="720" height="72" rx="12" fill="rgba(255,255,255,0.04)" stroke="rgba(245,158,11,0.15)" stroke-width="1"/>
    <rect x="40" y="382" width="6" height="72" rx="3" fill="#F472B6"/>
    <text x="72" y="424" font-family="GmarketSansTTF,Arial,sans-serif" font-size="18" fill="white">똑똑하게 절세하는 실전 팁! 13월의 월급, ...</text>
    <text x="730" y="423" font-family="GmarketSansTTF,Arial,sans-serif" font-size="14" fill="#F472B6" text-anchor="end">04</text>
    <rect x="40" y="466" width="720" height="72" rx="12" fill="rgba(255,255,255,0.04)" stroke="rgba(245,158,11,0.15)" stroke-width="1"/>
    <rect x="40" y="466" width="6" height="72" rx="3" fill="#A78BFA"/>
    <text x="72" y="508" font-family="GmarketSansTTF,Arial,sans-serif" font-size="18" fill="white">마무리하며: 아는 것이 돈이다!</text>
    <text x="730" y="507" font-family="GmarketSansTTF,Arial,sans-serif" font-size="14" fill="#A78BFA" text-anchor="end">05</text>

  <text x="40" y="575" font-family="GmarketSansTTF,Arial,sans-serif" font-size="11" fill="rgba(255,255,255,0.25)">쉬운재테크 · easyzetec.com</text>
</svg>