<svg xmlns="http://www.w3.org/2000/svg" width="800" height="470" viewBox="0 0 800 470">
  <defs>
    <linearGradient id="ibg" x1="0%" y1="0%" x2="100%" y2="100%">
      <stop offset="0%" style="stop-color:#1a0a0a"/>
      <stop offset="100%" style="stop-color:#3d1515"/>
    </linearGradient>
  </defs>
  <rect width="800" height="470" rx="16" fill="url(#ibg)"/>

  <rect x="40" y="30" width="8" height="36" rx="4" fill="#EF4444"/>
  <text x="60" y="58" font-family="GmarketSansTTF,Arial,sans-serif" font-size="22" font-weight="bold" fill="white">전세 vs 월세, 후회 없는 선택은? 당신에게 딱 맞는 주거 방...</text>
  <text x="40" y="95" font-family="GmarketSansTTF,Arial,sans-serif" font-size="14" fill="rgba(255,255,255,0.4)">핵심 비교 포인트</text>

  <rect x="40" y="122" width="720" height="296" rx="12" fill="rgba(255,255,255,0.02)" stroke="rgba(239,68,68,0.15)" stroke-width="1"/>
  
    <rect x="40" y="130" width="720" height="56" fill="rgba(255,255,255,0.04)"/>
    <circle cx="75" cy="158" r="14" fill="rgba(239,68,68,0.3)"/>
    <text x="75" y="163" font-family="GmarketSansTTF,Arial,sans-serif" font-size="13" font-weight="bold" fill="#EF4444" text-anchor="middle">✓</text>
    <text x="105" y="164" font-family="GmarketSansTTF,Arial,sans-serif" font-size="17" fill="white">전세 vs 월세, 기본 개념부터 명확히!</text>
    <rect x="40" y="186" width="720" height="56" fill="rgba(255,255,255,0.08)"/>
    <circle cx="75" cy="214" r="14" fill="rgba(239,68,68,0.3)"/>
    <text x="75" y="219" font-family="GmarketSansTTF,Arial,sans-serif" font-size="13" font-weight="bold" fill="#EF4444" text-anchor="middle">✓</text>
    <text x="105" y="220" font-family="GmarketSansTTF,Arial,sans-serif" font-size="17" fill="white">핵심은 '기회비용'으로 따져보기</text>
    <rect x="40" y="242" width="720" height="56" fill="rgba(255,255,255,0.04)"/>
    <circle cx="75" cy="270" r="14" fill="rgba(239,68,68,0.3)"/>
    <text x="75" y="275" font-family="GmarketSansTTF,Arial,sans-serif" font-size="13" font-weight="bold" fill="#EF4444" text-anchor="middle">✓</text>
    <text x="105" y="276" font-family="GmarketSansTTF,Arial,sans-serif" font-size="17" fill="white">전세의 장점과 단점, 꼼꼼히 확인!</text>
    <rect x="40" y="298" width="720" height="56" fill="rgba(255,255,255,0.08)"/>
    <circle cx="75" cy="326" r="14" fill="rgba(239,68,68,0.3)"/>
    <text x="75" y="331" font-family="GmarketSansTTF,Arial,sans-serif" font-size="13" font-weight="bold" fill="#EF4444" text-anchor="middle">✓</text>
    <text x="105" y="332" font-family="GmarketSansTTF,Arial,sans-serif" font-size="17" fill="white">월세의 장점과 단점, 놓치지 마세요!</text>
    <rect x="40" y="354" width="720" height="56" fill="rgba(255,255,255,0.04)"/>
    <circle cx="75" cy="382" r="14" fill="rgba(239,68,68,0.3)"/>
    <text x="75" y="387" font-family="GmarketSansTTF,Arial,sans-serif" font-size="13" font-weight="bold" fill="#EF4444" text-anchor="middle">✓</text>
    <text x="105" y="388" font-family="GmarketSansTTF,Arial,sans-serif" font-size="17" fill="white">상황별 추천: 나에게 맞는 선택은?</text>

  <text x="40" y="455" font-family="GmarketSansTTF,Arial,sans-serif" font-size="11" fill="rgba(255,255,255,0.25)">쉬운재테크 · easyzetec.com</text>
</svg>