<svg xmlns="http://www.w3.org/2000/svg" width="800" height="590" viewBox="0 0 800 590">
  <defs>
    <linearGradient id="ibg" x1="0%" y1="0%" x2="100%" y2="100%">
      <stop offset="0%" style="stop-color:#05201a"/>
      <stop offset="100%" style="stop-color:#0a3d2e"/>
    </linearGradient>
  </defs>
  <rect width="800" height="590" rx="16" fill="url(#ibg)"/>
  <circle cx="720" cy="60" r="120" fill="rgba(16,185,129,0.03)"/>

  <rect x="40" y="30" width="8" height="36" rx="4" fill="#10B981"/>
  <text x="60" y="58" font-family="GmarketSansTTF,Arial,sans-serif" font-size="22" font-weight="bold" fill="white">5년 만에 5천만원? 청년도약계좌로 목돈 만드는 확실한 비법 (...</text>
  <text x="40" y="95" font-family="GmarketSansTTF,Arial,sans-serif" font-size="14" fill="rgba(255,255,255,0.4)">이 글에서 다루는 핵심 내용</text>

  
    <rect x="40" y="130" width="720" height="72" rx="12" fill="rgba(255,255,255,0.04)" stroke="rgba(16,185,129,0.15)" stroke-width="1"/>
    <rect x="40" y="130" width="6" height="72" rx="3" fill="#FBBF24"/>
    <text x="72" y="172" font-family="GmarketSansTTF,Arial,sans-serif" font-size="18" fill="white">청년도약계좌, 대체 뭔가요?</text>
    <text x="730" y="171" font-family="GmarketSansTTF,Arial,sans-serif" font-size="14" fill="#FBBF24" text-anchor="end">01</text>
    <rect x="40" y="214" width="720" height="72" rx="12" fill="rgba(255,255,255,0.04)" stroke="rgba(16,185,129,0.15)" stroke-width="1"/>
    <rect x="40" y="214" width="6" height="72" rx="3" fill="#34D399"/>
    <text x="72" y="256" font-family="GmarketSansTTF,Arial,sans-serif" font-size="18" fill="white">‍ 나도 청년도약계좌 가입할 수 있을까? 가입...</text>
    <text x="730" y="255" font-family="GmarketSansTTF,Arial,sans-serif" font-size="14" fill="#34D399" text-anchor="end">02</text>
    <rect x="40" y="298" width="720" height="72" rx="12" fill="rgba(255,255,255,0.04)" stroke="rgba(16,185,129,0.15)" stroke-width="1"/>
    <rect x="40" y="298" width="6" height="72" rx="3" fill="#60A5FA"/>
    <text x="72" y="340" font-family="GmarketSansTTF,Arial,sans-serif" font-size="18" fill="white">이런 놀라운 혜택이 기다려요! (최대 연 6%...</text>
    <text x="730" y="339" font-family="GmarketSansTTF,Arial,sans-serif" font-size="14" fill="#60A5FA" text-anchor="end">03</text>
    <rect x="40" y="382" width="720" height="72" rx="12" fill="rgba(255,255,255,0.04)" stroke="rgba(16,185,129,0.15)" stroke-width="1"/>
    <rect x="40" y="382" width="6" height="72" rx="3" fill="#F472B6"/>
    <text x="72" y="424" font-family="GmarketSansTTF,Arial,sans-serif" font-size="18" fill="white">가입 방법, 어렵지 않아요!</text>
    <text x="730" y="423" font-family="GmarketSansTTF,Arial,sans-serif" font-size="14" fill="#F472B6" text-anchor="end">04</text>
    <rect x="40" y="466" width="720" height="72" rx="12" fill="rgba(255,255,255,0.04)" stroke="rgba(16,185,129,0.15)" stroke-width="1"/>
    <rect x="40" y="466" width="6" height="72" rx="3" fill="#A78BFA"/>
    <text x="72" y="508" font-family="GmarketSansTTF,Arial,sans-serif" font-size="18" fill="white">이것만 알면 성공! 슬기로운 청년도약계좌 활용...</text>
    <text x="730" y="507" font-family="GmarketSansTTF,Arial,sans-serif" font-size="14" fill="#A78BFA" text-anchor="end">05</text>

  <text x="40" y="575" font-family="GmarketSansTTF,Arial,sans-serif" font-size="11" fill="rgba(255,255,255,0.25)">쉬운재테크 · easyzetec.com</text>
</svg>